PathFileType	4	(X/Y/Z)	Run_300 02
DataRate	CameraRate	NumFrames	NumMarkers	Units	OrigDataRate	OrigDataStartFrame	OrigNumFrames
120	120	5	42	mm	120	102	128
Frame#	Time	LASI			RASI			LPSI			RPSI			RTH1			RTH2			RTH3			LTH1			LTH2			LTH3			RTB1			RTB2			LTB1			LTB2			LTB3			RCAL			RTOE			RMT5			LCAL			LTOE			LMT5			LACR			RACR			CLAV			C7			RUA1			RUA2			RUA3			RLEL			RMEL			LUA1			LUA2			LUA3			LLEL			LMEL			RFAsuperior			RFAradius			RFAulna			LFAsuperior			LFAradius			LFAulna			RTB3		
		X1	Y1	Z1	X2	Y2	Z2	X3	Y3	Z3	X4	Y4	Z4	X5	Y5	Z5	X6	Y6	Z6	X7	Y7	Z7	X8	Y8	Z8	X9	Y9	Z9	X10	Y10	Z10	X11	Y11	Z11	X12	Y12	Z12	X13	Y13	Z13	X14	Y14	Z14	X15	Y15	Z15	X16	Y16	Z16	X17	Y17	Z17	X18	Y18	Z18	X19	Y19	Z19	X20	Y20	Z20	X21	Y21	Z21	X22	Y22	Z22	X23	Y23	Z23	X24	Y24	Z24	X25	Y25	Z25	X26	Y26	Z26	X27	Y27	Z27	X28	Y28	Z28	X29	Y29	Z29	X30	Y30	Z30	X31	Y31	Z31	X32	Y32	Z32	X33	Y33	Z33	X34	Y34	Z34	X35	Y35	Z35	X36	Y36	Z36	X37	Y37	Z37	X38	Y38	Z38	X39	Y39	Z39	X40	Y40	Z40	X41	Y41	Z41	X42	Y42	Z42	

102	  0.850000	880.026951	1044.036508	-452.237446	898.844262	1018.517089	-191.619378	703.419778	1067.006808	-349.237134	710.922367	1055.089984	-269.145215	841.791299	842.493462	-158.196244	881.492743	736.620176	-171.085023	807.669016	628.014528	-202.301031	866.981007	839.892207	-502.422620	970.214333	752.095259	-486.017913	953.906639	624.855592	-455.705583	727.432095	421.266474	-270.897897	657.650647	434.948309	-208.313478	1031.236309	408.726567	-367.477226	989.209820	323.169316	-413.530585	975.319207	217.015060	-335.778056	401.261633	511.967989	-285.707755	383.607848	279.037575	-283.438021	353.957435	350.901950	-200.154547	832.153353	100.018232	-312.311346	1067.270355	 75.646794	-300.741829	993.048395	 55.165803	-390.244297	900.592252	1478.446852	-514.753154	919.436042	1516.606892	-169.866278	961.147460	1444.658439	-307.722502	833.850302	1538.113515	-337.916390	889.789879	1417.531140	-85.065184	869.267846	1328.312769	-84.404833	802.697671	1343.658922	-42.777648	760.495734	1219.780457	 10.877685	717.723812	1212.201559	-62.166497	872.483422	1390.847654	-591.034086	871.247420	1317.748045	-583.649345	774.557593	1318.556249	-588.386638	749.099654	1165.383430	-657.129859	702.043090	1156.719924	-583.272371	857.919400	1174.432039	-13.670682	982.217930	1120.929234	-133.072532	973.654042	1074.452026	-76.823157	839.669178	1143.455477	-630.494602	976.738637	1135.975691	-508.362901	973.190488	1069.504112	-535.498501	597.758292	354.467532	-277.609867	
103	  0.858333	878.393104	1040.558441	-451.377684	896.253069	1015.077368	-190.689717	702.202804	1063.829299	-347.390330	708.018469	1051.714132	-267.632286	844.296236	839.593865	-158.076495	889.645489	734.920627	-170.557619	819.976901	624.616976	-201.749706	862.982770	836.704453	-502.847100	965.050935	747.961787	-486.957325	946.161604	620.031498	-455.734063	747.666241	422.594229	-269.970144	678.326153	434.331785	-206.618464	1019.544520	402.366348	-368.224510	973.327644	317.818596	-413.611053	955.339175	212.880856	-335.685593	420.169771	513.229907	-282.357433	405.340659	280.122951	-278.929496	376.371789	352.016441	-195.277901	807.772453	100.382492	-312.181977	1043.031672	 74.110561	-300.680431	968.181468	 54.708459	-390.389491	900.534917	1473.419451	-514.695639	917.641849	1513.119110	-169.284833	960.319937	1441.001634	-307.076544	833.800381	1535.212310	-338.069966	886.789613	1413.546609	-85.299305	864.167424	1323.877888	-87.124859	798.278386	1339.154163	-44.777636	752.893573	1215.579773	  7.103242	712.328156	1208.772585	-66.718945	875.343280	1384.099459	-590.422829	876.812707	1310.178928	-582.313566	780.449047	1308.711212	-590.447536	762.341780	1154.305071	-659.226135	712.678214	1143.892392	-586.502418	849.210197	1165.164020	-13.869005	973.361847	1100.948177	-127.393590	961.487674	1057.732500	-69.457343	853.151657	1134.919375	-629.589656	987.426334	1127.983752	-505.920034	985.307494	1061.893916	-534.296771	618.348865	353.828099	-275.748102	
104	  0.866667	876.962939	1037.814969	-451.040764	893.986751	1012.761802	-190.537872	701.127595	1061.944869	-346.524458	705.413825	1049.474595	-266.906601	846.106144	837.361475	-158.135780	898.383387	734.186574	-170.083961	833.329179	622.072478	-200.304447	859.328437	834.387560	-503.729299	959.254071	741.659934	-488.009312	936.718068	614.597079	-455.211890	768.646097	424.340094	-269.639098	699.594852	433.765228	-205.036582	1006.249076	395.880159	-368.582131	956.289664	312.362678	-413.546481	934.520127	208.979398	-335.475581	439.180200	512.678653	-278.859828	428.642532	279.338807	-274.953983	399.752851	350.867920	-190.799420	783.193915	100.765395	-312.079221	1018.396326	 73.087037	-300.562836	943.178958	 54.501713	-390.466195	901.009555	1469.188034	-514.498090	916.090438	1510.237913	-168.727965	959.395627	1437.639868	-306.331647	833.210261	1532.601294	-338.075301	883.602422	1410.611804	-85.622171	859.405724	1320.747108	-89.499448	793.956079	1335.782039	-46.954092	745.246123	1212.441454	  3.317994	707.102989	1206.576279	-71.392922	877.341919	1378.730311	-588.963414	882.408193	1304.325232	-581.202702	786.385044	1300.213174	-591.332112	776.060673	1144.693225	-660.438483	723.906503	1132.469216	-589.226201	840.297690	1157.476310	-14.127309	963.306391	1082.541326	-121.402644	948.113545	1042.634510	-62.159000	867.588782	1128.689200	-627.930093	998.786707	1121.922048	-503.074459	997.898621	1056.081994	-532.533095	639.525787	353.242599	-273.999104	
105	  0.875000	875.352724	1036.162197	-451.514523	892.082279	1011.380596	-191.193088	699.821325	1061.208527	-346.540154	703.202447	1048.200870	-266.969066	847.380152	835.604076	-158.318350	907.489740	734.634129	-169.745019	847.511787	620.380238	-198.231358	855.673432	833.031242	-504.756990	952.624336	734.728683	-488.949013	926.439704	609.614760	-454.898872	790.016402	426.083608	-269.470560	721.239947	433.254135	-203.600712	991.561415	390.167457	-368.512079	938.583323	307.879970	-413.690321	913.179975	206.072743	-335.559406	458.202772	510.306441	-275.271020	453.100571	276.757137	-271.553805	423.780047	347.583629	-186.770348	758.454354	101.270271	-312.143394	993.390003	 72.575346	-300.602106	918.029608	 54.456243	-390.628243	901.922824	1465.913089	-514.231819	914.493047	1508.009228	-168.035159	958.450460	1434.882698	-305.394330	832.240459	1530.422046	-338.118873	880.094671	1408.433846	-85.872791	854.842817	1318.721628	-91.093183	789.410099	1333.660078	-49.044292	737.441284	1210.671901	 -0.207318	701.508228	1205.841516	-75.822637	878.863814	1374.469523	-587.168285	887.808484	1300.148112	-580.330888	792.137759	1292.922639	-591.124008	789.680860	1136.835301	-660.760752	735.613815	1122.803526	-591.374327	831.058313	1151.676924	-14.193361	952.126904	1066.595348	-115.361529	933.468312	1029.626683	-55.426727	882.086796	1124.339210	-626.220441	1010.462817	1118.256730	-499.950028	1010.682462	1052.494884	-530.076409	661.078771	352.712125	-272.396654	
106	  0.883333	873.454854	1035.623197	-452.669392	890.427203	1010.865349	-192.383558	698.216538	1061.385929	-347.095586	701.270760	1047.808215	-267.531364	848.499059	834.462753	-158.457129	916.652877	736.446095	-169.524703	862.017429	619.938530	-195.992886	851.466000	832.262185	-505.623040	944.873020	728.690315	-489.707171	915.710000	605.700679	-455.264697	811.488775	427.817986	-269.236541	743.042147	432.912130	-202.294629	975.734567	385.512361	-368.319465	920.388565	304.634521	-414.185741	891.508364	204.177387	-336.011513	477.106838	506.114507	-271.666197	478.476625	272.467400	-268.726174	448.276129	342.266263	-183.215075	733.650498	101.905386	-312.353041	968.201555	 72.269781	-300.868507	892.789400	 54.406872	-390.925692	903.124667	1463.802219	-513.916812	912.673204	1506.423070	-167.171491	957.518847	1433.037513	-304.237403	831.297010	1528.960872	-338.312016	876.199130	1406.923713	-85.896637	850.233971	1317.667541	-91.614375	784.271497	1332.887838	-50.923378	729.235795	1210.527936	 -3.260578	694.834757	1206.657920	-79.629010	880.673152	1371.235977	-585.604510	892.943435	1297.520157	-579.495451	797.634737	1286.856104	-590.259769	802.583807	1130.935698	-660.306517	747.389251	1115.215329	-592.747961	821.094280	1147.804003	-13.920877	939.964870	1053.915403	-109.592792	917.648695	1019.125798	-49.731075	895.584996	1121.276547	-624.732613	1021.907877	1117.301222	-496.612014	1023.290074	1051.471427	-526.909758	682.800481	352.343249	-270.925576	
